<svg xmlns="http://www.w3.org/2000/svg" width="184.469" height="21" viewBox="0 0 184.469 21">
  <metadata><?xpacket begin="﻿" id="W5M0MpCehiHzreSzNTczkc9d"?>
<x:xmpmeta xmlns:x="adobe:ns:meta/" x:xmptk="Adobe XMP Core 5.6-c138 79.159824, 2016/09/14-01:09:01        ">
   <rdf:RDF xmlns:rdf="http://www.w3.org/1999/02/22-rdf-syntax-ns#">
      <rdf:Description rdf:about=""/>
   </rdf:RDF>
</x:xmpmeta>
                                                                                                    
                                                                                                    
                                                                                                    
                                                                                                    
                                                                                                    
                                                                                                    
                                                                                                    
                                                                                                    
                                                                                                    
                                                                                                    
                                                                                                    
                                                                                                    
                                                                                                    
                                                                                                    
                                                                                                    
                                                                                                    
                                                                                                    
                                                                                                    
                                                                                                    
                                                                                                    
                           
<?xpacket end="w"?></metadata>
<defs>
    <style>
      .cls-1 {
        fill: #212121;
        fill-rule: evenodd;
      }
    </style>
  </defs>
  <path id="logo" class="cls-1" d="M135.5,82.7V65.874h-5.569V82.7H135.5Zm23.544,0V65.874H154v8.641l-6.649-8.641H142.7V82.7h5.064V74.107l6.625,8.593h4.656Zm21.264-12.433V65.874H165.16v4.392h4.777V82.7h5.568V70.266h4.8Zm20.351-.168V65.874H186.424V82.7h14.45V78.475h-8.881V76.387h7.872V72.163h-7.872V70.1h8.664Zm16.8,12.6h6.288l-3.312-5.472A5.846,5.846,0,0,0,223.1,71.9c0-3.84-2.616-6.025-7.176-6.025h-8.137V82.7h5.568V78.331h2.089Zm-4.1-8.593V70.1h2.569a1.763,1.763,0,0,1,1.9,1.968,1.8,1.8,0,0,1-1.9,2.04h-2.569Zm22.2,8.593V65.874h-5.568V82.7h5.568Zm15.6-16.993c-5.352,0-9.241,3.576-9.241,8.569,0,5.017,3.889,8.665,9.241,8.665s9.241-3.672,9.241-8.665C260.393,69.306,256.505,65.706,251.152,65.706Zm0.072,4.632c1.92,0,3.456,1.656,3.456,3.96s-1.536,4.008-3.456,4.008a3.808,3.808,0,0,1-3.6-4.008A3.748,3.748,0,0,1,251.224,70.338Zm25.2,12.361h6.288L279.4,77.227a5.846,5.846,0,0,0,2.664-5.328c0-3.84-2.616-6.025-7.176-6.025h-8.137V82.7h5.569V78.331h2.088Zm-4.1-8.593V70.1h2.568a1.763,1.763,0,0,1,1.9,1.968,1.8,1.8,0,0,1-1.9,2.04H272.32ZM98.25,73.031V63.844h9.187v9.187H98.25Zm11.813-9.187h9.187v9.187h-9.187V63.844h0Zm0,21V75.656h9.187v9.188h-9.187Zm-11.813,0V75.656h9.187v9.188H98.25Z" transform="translate(-98.25 -63.844)"/>
</svg>
